P3
24 7
255
100 43 79 100 43 79 100 43 79 100 43 79 100 43 79 100 43 79 100 43 79 
100 43 79 100 43 79 100 43 79 100 43 79 100 43 79 100 43 79 100 43 79 
100 43 79 100 43 79 100 43 79 100 43 79 100 43 79 100 43 79 100 43 79 
100 43 79 100 43 79 100 43 79 100 43 79 0 0 0 0 0 0 0 0 0 0 0 0 
100 43 79 100 43 79 0 0 0 0 0 0 0 0 0 0 0 0 100 43 79 100 43 79 0 0 0 
0 0 0 0 0 0 0 0 0 100 43 79 100 43 79 0 0 0 0 0 0 0 0 0 0 0 0 
100 43 79 100 43 79 0 0 0 100 43 79 100 43 79 100 43 79 100 43 79 
100 43 79 0 0 0 100 43 79 100 43 79 100 43 79 100 43 79 100 43 79 
0 0 0 100 43 79 100 43 79 100 43 79 100 43 79 100 43 79 0 0 0 
252 119 133 252 119 133 0 0 0 100 43 79 100 43 79 0 0 0 0 0 0 0 0 0 
100 43 79 100 43 79 100 43 79 0 0 0 0 0 0 0 0 0 100 43 79 100 43 79 
100 43 79 0 0 0 0 0 0 0 0 0 100 43 79 100 43 79 100 43 79 0 0 0 0 0 0 
0 0 0 0 0 0 100 43 79 100 43 79 0 0 0 100 43 79 100 43 79 100 43 79 
100 43 79 100 43 79 0 0 0 100 43 79 100 43 79 100 43 79 100 43 79 
100 43 79 0 0 0 100 43 79 100 43 79 100 43 79 100 43 79 100 43 79 
0 0 0 100 43 79 100 43 79 100 43 79 100 43 79 100 43 79 0 0 0 
100 43 79 100 43 79 100 43 79 100 43 79 100 43 79 0 0 0 0 0 0 0 0 0 
0 0 0 100 43 79 100 43 79 0 0 0 0 0 0 0 0 0 0 0 0 100 43 79 100 43 79 
0 0 0 100 43 79 100 43 79 100 43 79 100 43 79 100 43 79 100 43 79 
100 43 79 100 43 79 100 43 79 100 43 79 100 43 79 100 43 79 100 43 79 
100 43 79 100 43 79 100 43 79 100 43 79 100 43 79 100 43 79 100 43 79 
100 43 79 100 43 79 100 43 79 100 43 79 100 43 79 100 43 79 100 43 79 
100 43 79 