P3
24 7
255
8 169 210 8 169 210 8 169 210 8 169 210 8 169 210 8 169 210 8 169 210 
8 169 210 8 169 210 8 169 210 8 169 210 8 169 210 8 169 210 8 169 210 
8 169 210 8 169 210 8 169 210 8 169 210 8 169 210 8 169 210 8 169 210 
8 169 210 8 169 210 8 169 210 
8 169 210 0 0 0 0 0 0 0 0 0 0 0 0 8 169 210 8 169 210 0 0 0 0 0 0 0 0 0 0 0 0 8 169 210 8 169 210 0 0 0 0 0 0 
0 0 0 0 0 0 8 169 210 8 169 210 0 0 0 0 0 0 0 0 0 0 0 0 8 169 210 
8 169 210 0 0 0 8 169 210 8 169 210 8 169 210 8 169 210 8 169 210 0 0 0 8 169 210 8 169 210 8 169 210 8 169 210 8 169 210 0 0 0 8 169 210 8 169 210 8 169 210 8 169 210 8 169 210 0 0 0 13 196 147 13 196 147 0 0 0 8 169 210 
8 169 210 0 0 0 0 0 0 0 0 0 8 169 210 8 169 210 8 169 210 0 0 0 0 0 0 0 0 0 8 169 210 8 169 210 8 169 210 0 0 0 0 0 0 0 0 0 8 169 210 8 169 210 8 169 210 0 0 0 0 0 0 0 0 0 0 0 0 8 169 210 
8 169 210 0 0 0 8 169 210 8 169 210 8 169 210 8 169 210 8 169 210 0 0 0 8 169 210 8 169 210 8 169 210 8 169 210 8 169 210 0 0 0 8 169 210 8 169 210 8 169 210 8 169 210 8 169 210 0 0 0 8 169 210 8 169 210 8 169 210 8 169 210 

8 169 210 0 0 0 8 169 210 8 169 210 8 169 210 8 169 210 8 169 210 0 0 0 0 0 0 0 0 0 0 0 0 8 169 210 8 169 210 0 0 0 0 0 0 0 0 0 0 0 0 8 169 210 8 169 210 0 0 0 8 169 210 8 169 210 8 169 210 8 169 210 
8 169 210 
8 169 210 8 169 210 8 169 210 8 169 210 8 169 210 8 169 210 8 169 210 
8 169 210 8 169 210 8 169 210 8 169 210 8 169 210 8 169 210 8 169 210 
8 169 210 8 169 210 8 169 210 8 169 210 8 169 210 8 169 210 8 169 210 
8 169 210 8 169 210 
