P3
6 10
255
75 195 36 75 195 36 75 195 36 75 195 36 0 0 0 205 222 121 
75 195 36 75 195 36 75 195 36 75 195 36 0 0 0 205 222 121 
75 195 36 75 195 36 75 195 36 75 195 36 0 0 0 205 222 121 
75 195 36 75 195 36 75 195 36 75 195 36 0 0 0 205 222 121 
75 195 36 75 195 36 75 195 36 75 195 36 0 0 0 205 222 121 
75 195 36 75 195 36 75 195 36 75 195 36 0 0 0 205 222 121 
0 0 0 75 195 36 75 195 36 75 195 36 0 0 0 205 222 121 
205 222 121 0 0 0 
0 0 0 0 0 0 205 222 121 205 222 121 
205 222 121 205 222 121 205 222 121 205 222 121 205 222 121 205 222 121 
205 222 121 205 222 121 205 222 121 205 222 121 205 222 121 205 222 121 
